<svg xmlns="http://www.w3.org/2000/svg" viewBox="0 0 440.36 419.45"><defs><style>.cls-1,.cls-6{fill:#5176c6;}.cls-2{fill:#153b6a;}.cls-3{fill:#7da7e2;}.cls-4{opacity:0.44;}.cls-16,.cls-5{fill:#e6efff;}.cls-6,.cls-7{opacity:0.14;}.cls-15,.cls-8{fill:#507bff;}.cls-23,.cls-9{fill:#071b33;}.cls-10{fill:#d3470b;}.cls-11{fill:#fff;}.cls-12,.cls-13,.cls-19,.cls-22{fill:none;stroke-miterlimit:10;}.cls-12{stroke:#153b6a;}.cls-13{stroke:#5176c6;}.cls-14,.cls-15{opacity:0.25;}.cls-16{opacity:0.35;}.cls-17{fill:#ffd0c5;}.cls-18{fill:#f9ac9d;}.cls-19{stroke:#071b33;stroke-width:0.5px;}.cls-20{fill:#fbf6f1;}.cls-21{fill:#494916;}.cls-22{stroke:#fff;}.cls-23{font-size:19.52px;font-family:BebasNeue-Regular, BebasNeue Regular;}</style></defs><title>register_store</title><g id="OBJECTS"><rect class="cls-1" x="30.77" y="51.5" width="393.88" height="132.02"/><rect class="cls-2" x="359.83" y="51.5" width="64.83" height="132.02"/><rect class="cls-1" x="30.77" y="192.29" width="329.06" height="208.9"/><rect class="cls-2" x="386.3" y="233.23" width="64.83" height="208.9" transform="translate(810.96 634.42) rotate(180)"/><rect class="cls-3" x="30.77" y="327.9" width="329.06" height="73.29"/><g class="cls-4"><rect class="cls-2" x="81.99" y="370.14" width="22.64" height="6.94" rx="1.51"/><rect class="cls-2" x="94.28" y="361.74" width="22.64" height="6.94" rx="1.51"/><rect class="cls-2" x="69.81" y="361.74" width="22.64" height="6.94" rx="1.51"/></g><g class="cls-4"><rect class="cls-2" x="216.97" y="386.4" width="22.64" height="6.94" rx="1.51"/><rect class="cls-2" x="229.26" y="378" width="22.64" height="6.94" rx="1.51"/><rect class="cls-2" x="204.79" y="378" width="22.64" height="6.94" rx="1.51"/></g><rect class="cls-3" x="30.77" y="317.28" width="329.06" height="4.32"/><rect class="cls-3" x="30.77" y="308.97" width="329.06" height="4.32"/><rect class="cls-2" x="247.25" y="245.97" width="86.19" height="155.22"/><rect class="cls-5" x="255.1" y="260.11" width="70.49" height="85.29" rx="2.88"/><rect class="cls-6" x="255.1" y="348.96" width="70.49" height="47.26" rx="2.88"/><path class="cls-5" d="M277.62,351.92h0a1.83,1.83,0,0,0-1.83,1.83V367a1.82,1.82,0,0,0,1.83,1.82h0a1.82,1.82,0,0,0,1.83-1.82V353.75A1.83,1.83,0,0,0,277.62,351.92Z" transform="translate(-26.47 -40.94)"/><rect class="cls-2" x="106.04" y="254.26" width="113.51" height="170.85" transform="translate(476 135.95) rotate(90)"/><rect class="cls-5" x="54.87" y="245.97" width="162.89" height="105.55"/><g class="cls-7"><polygon class="cls-3" points="129.95 245.97 102.56 245.97 54.87 332.77 54.87 351.52 71.96 351.52 129.95 245.97"/><polygon class="cls-3" points="76.7 351.52 86.21 351.52 144.2 245.97 134.69 245.97 76.7 351.52"/><polygon class="cls-3" points="106.93 351.52 150.45 351.52 208.44 245.97 164.92 245.97 106.93 351.52"/><polygon class="cls-3" points="168.38 351.52 217.76 261.65 217.76 245.97 216.86 245.97 158.87 351.52 168.38 351.52"/></g><rect class="cls-1" x="23.77" y="183.52" width="405.94" height="8.77"/><rect class="cls-1" x="23.77" y="167.45" width="405.94" height="8.77"/><rect class="cls-2" x="354.53" y="183.52" width="75.17" height="8.77"/><rect class="cls-2" x="354.53" y="167.45" width="75.17" height="8.77"/><rect class="cls-8" x="16.53" y="65.56" width="315.2" height="92.76"/><rect class="cls-9" x="162.18" y="3.25" width="76.84" height="299.27" transform="translate(327.01 -88.66) rotate(90)"/><rect class="cls-8" x="29.79" y="73.52" width="293.97" height="70.99"/><rect class="cls-9" x="358.2" y="106.5" width="17.33" height="92.76" transform="translate(707.25 264.82) rotate(180)"/><rect class="cls-1" x="259.76" width="100.07" height="19.17"/><rect class="cls-2" x="386.3" y="40.94" width="24.1" height="19.17" transform="translate(770.23 60.12) rotate(180)"/><rect class="cls-1" x="263.87" y="19.17" width="90.66" height="32.32"/><rect class="cls-2" x="381.01" y="60.12" width="24.38" height="32.32" transform="translate(759.92 111.61) rotate(180)"/><rect class="cls-2" x="22.73" y="401.19" width="411.23" height="6.94"/><rect class="cls-1" x="14.15" y="408.13" width="426.2" height="11.32"/><rect class="cls-1" x="380.86" y="238.62" width="22.64" height="6.94" rx="1.51"/><rect class="cls-1" x="393.15" y="230.22" width="22.64" height="6.94" rx="1.51"/><rect class="cls-1" x="368.68" y="230.22" width="22.64" height="6.94" rx="1.51"/><rect class="cls-1" x="398.48" y="352.98" width="22.64" height="6.94" rx="1.51"/><rect class="cls-1" x="386.3" y="344.58" width="22.64" height="6.94" rx="1.51"/><polygon class="cls-2" points="48.87 333.81 45.69 333.81 45.69 344.65 33.95 356.39 28.42 350.86 28.42 303.86 25.23 303.86 25.23 352.18 36.47 363.41 36.47 379.46 39.65 379.46 39.65 362.09 36.2 358.64 48.87 345.97 48.87 333.81"/><circle class="cls-10" cx="53.39" cy="344.8" r="22" transform="translate(-254.65 97.8) rotate(-45)"/><circle class="cls-10" cx="73.94" cy="374.81" r="11.2" transform="translate(-269.85 121.12) rotate(-45)"/><polygon class="cls-8" points="16.1 370.14 27.15 401.19 47.14 401.19 58.19 370.14 16.1 370.14"/><polygon class="cls-5" points="54.64 380.13 56.33 375.38 17.96 375.38 19.65 380.13 54.64 380.13"/><polygon class="cls-5" points="52.67 385.67 53.86 382.32 20.43 382.32 21.62 385.67 52.67 385.67"/><path class="cls-11" d="M386.3,238.66v53H352.52l-12-19.27S356.81,238.93,386.3,238.66Z" transform="translate(-26.47 -40.94)"/><path class="cls-8" d="M90.05,238.66l-18.84,16.5a43.8,43.8,0,0,0-14.94,33v1.51a14,14,0,0,1-14.05,14.05H40.53a14.06,14.06,0,0,1-14.06-14.05v-1.51a43.8,43.8,0,0,1,15-33l18.84-16.5Z" transform="translate(-26.47 -40.94)"/><path class="cls-11" d="M119.85,238.66,101,255.16a43.8,43.8,0,0,0-15,33v1.51a14,14,0,0,1-14,14.05H70.32a14,14,0,0,1-14-14.05v-1.51a43.8,43.8,0,0,1,14.94-33l18.84-16.5Z" transform="translate(-26.47 -40.94)"/><path class="cls-8" d="M149.64,238.66l-18.84,16.5a43.83,43.83,0,0,0-14.94,33v1.51a14,14,0,0,1-14,14.05h-1.69a14.05,14.05,0,0,1-14.06-14.05v-1.51a43.8,43.8,0,0,1,15-33l18.84-16.5Z" transform="translate(-26.47 -40.94)"/><path class="cls-11" d="M179.43,238.66l-18.83,16.5a43.8,43.8,0,0,0-14.95,33v1.51a14,14,0,0,1-14.05,14.05h-1.69a14,14,0,0,1-14-14.05v-1.51a43.83,43.83,0,0,1,14.94-33l18.84-16.5Z" transform="translate(-26.47 -40.94)"/><path class="cls-8" d="M209.23,238.66l-18.84,16.5a43.8,43.8,0,0,0-14.94,33v1.51a14,14,0,0,1-14,14.05h-1.7a14,14,0,0,1-14-14.05v-1.51a43.8,43.8,0,0,1,14.95-33l18.83-16.5Z" transform="translate(-26.47 -40.94)"/><path class="cls-11" d="M239,238.66l-18.84,16.5a43.83,43.83,0,0,0-14.94,33v1.51a14,14,0,0,1-14.05,14.05H189.5a14,14,0,0,1-14.05-14.05v-1.51a43.8,43.8,0,0,1,14.94-33l18.84-16.5Z" transform="translate(-26.47 -40.94)"/><path class="cls-8" d="M268.82,238.66,250,255.16a43.8,43.8,0,0,0-14.94,33v1.51A14.06,14.06,0,0,1,221,303.67h-1.69a14,14,0,0,1-14-14.05v-1.51a43.83,43.83,0,0,1,14.94-33L239,238.66Z" transform="translate(-26.47 -40.94)"/><path class="cls-11" d="M298.61,238.66l-18.84,16.5a43.83,43.83,0,0,0-14.94,33v1.51a14,14,0,0,1-14,14.05h-1.69A14,14,0,0,1,235,289.62v-1.51a43.8,43.8,0,0,1,14.94-33l18.84-16.5Z" transform="translate(-26.47 -40.94)"/><path class="cls-8" d="M328.41,238.66l-18.84,16.5a43.8,43.8,0,0,0-14.95,33v1.51a14,14,0,0,1-14.05,14.05h-1.69a14,14,0,0,1-14.05-14.05v-1.51a43.83,43.83,0,0,1,14.94-33l18.84-16.5Z" transform="translate(-26.47 -40.94)"/><path class="cls-11" d="M358.2,238.66l-18.84,16.5a43.8,43.8,0,0,0-14.94,33v1.51a14.05,14.05,0,0,1-14.06,14.05h-1.68a14.06,14.06,0,0,1-14.06-14.05v-1.51a43.8,43.8,0,0,1,14.95-33l18.84-16.5Z" transform="translate(-26.47 -40.94)"/><path class="cls-8" d="M386.3,238.66l-18.84,16.5a43.83,43.83,0,0,0-14.94,33v1.51a14,14,0,0,1-14,14.05h0a14,14,0,0,1-14.05-14.05v-1.51a43.8,43.8,0,0,1,14.94-33l18.84-16.5Z" transform="translate(-26.47 -40.94)"/><line class="cls-12" x1="259.76" y1="19.17" x2="383.93" y2="19.17"/><line class="cls-12" x1="263.87" y1="51.5" x2="359.83" y2="51.5"/><line class="cls-12" x1="30.77" y1="167.45" x2="354.53" y2="167.45"/><line class="cls-12" x1="354.53" y1="176.22" x2="30.77" y2="176.22"/><line class="cls-12" x1="30.77" y1="183.52" x2="354.53" y2="183.52"/><line class="cls-12" x1="354.53" y1="192.29" x2="30.77" y2="192.29"/><line class="cls-13" x1="359.83" y1="167.45" x2="424.65" y2="167.45"/><line class="cls-13" x1="359.83" y1="176.22" x2="424.65" y2="176.22"/><line class="cls-13" x1="359.83" y1="183.52" x2="424.65" y2="183.52"/><line class="cls-13" x1="359.83" y1="192.29" x2="424.65" y2="192.29"/><line class="cls-13" x1="247.25" y1="401.19" x2="333.44" y2="401.19"/><line class="cls-13" x1="359.83" y1="401.19" x2="424.65" y2="401.19"/><polyline class="cls-12" points="29.79 73.52 323.76 73.52 323.76 144.51"/><g class="cls-14"><rect class="cls-8" x="69.81" y="292.73" width="147.95" height="12.15"/><rect class="cls-8" x="78.69" y="278.76" width="14.68" height="14.68" rx="3.6"/><rect class="cls-8" x="94.48" y="278.76" width="14.68" height="14.68" rx="3.6"/><rect class="cls-8" x="110.27" y="278.76" width="14.68" height="14.68" rx="3.6"/><rect class="cls-8" x="126.06" y="278.76" width="14.68" height="14.68" rx="3.6"/><rect class="cls-8" x="141.85" y="278.76" width="14.68" height="14.68" rx="3.6"/><rect class="cls-8" x="157.64" y="278.76" width="14.68" height="14.68" rx="3.6"/><rect class="cls-8" x="173.43" y="278.76" width="14.68" height="14.68" rx="3.6"/><rect class="cls-8" x="189.22" y="278.76" width="14.68" height="14.68" rx="3.6"/><rect class="cls-8" x="78.69" y="308.97" width="14.68" height="14.68" rx="3.6"/><rect class="cls-8" x="94.48" y="308.97" width="14.68" height="14.68" rx="3.6"/><rect class="cls-8" x="110.27" y="308.97" width="14.68" height="14.68" rx="3.6"/><rect class="cls-8" x="126.06" y="308.97" width="14.68" height="14.68" rx="3.6"/><rect class="cls-8" x="141.85" y="308.97" width="14.68" height="14.68" rx="3.6"/><rect class="cls-8" x="157.64" y="308.97" width="14.68" height="14.68" rx="3.6"/><rect class="cls-8" x="173.43" y="308.97" width="14.68" height="14.68" rx="3.6"/><rect class="cls-8" x="189.22" y="308.97" width="14.68" height="14.68" rx="3.6"/><rect class="cls-8" x="69.81" y="322.45" width="147.95" height="12.15"/></g><rect class="cls-15" x="270.14" y="283.71" width="42.23" height="18.75" rx="4.17"/><polyline class="cls-12" points="26.92 111.64 158.87 111.64 210.55 73.52"/><path class="cls-13" d="M309.84,325.92s4.26-15.74,9.14-15.85,9.43,15.85,9.43,15.85" transform="translate(-26.47 -40.94)"/><path class="cls-9" d="M381.44,441.75s-4.68,4.68-8.22,5.35,1.06,3.25,10.71,2.39l5.64-.76.79-5.83Z" transform="translate(-26.47 -40.94)"/><path class="cls-9" d="M402.93,442.13s-1,5.93,0,6.6,6.3,3,10.81,2.2c4.78-.86,1.51-1.56.46-3.54a37,37,0,0,1-2.05-5.26Z" transform="translate(-26.47 -40.94)"/><path class="cls-16" d="M372.73,447.23c-2.53.81,2.06,3.08,11.2,2.26l5.64-.76.19-1.46C385.45,447.76,376.84,447.43,372.73,447.23Z" transform="translate(-26.47 -40.94)"/><path class="cls-16" d="M413.74,450.93c3.43-.62,2.72-1.16,1.65-2.14a17,17,0,0,1-12.89-2.19c0,1,.1,1.9.43,2.13C403.9,449.4,409.23,451.74,413.74,450.93Z" transform="translate(-26.47 -40.94)"/><path class="cls-17" d="M358.6,336.45a1.87,1.87,0,0,0-.86-1.92c-1.14-.82-3.31-2-3.82-3.12s-1.34,0-.64,1.45-2.42-.18-4.9-1-4.4,2.84,5.8,6.35Z" transform="translate(-26.47 -40.94)"/><path class="cls-10" d="M376.6,335.26a3.83,3.83,0,0,1,3.31-3.11,189.79,189.79,0,0,1,19.9-.71c3.42.23,3.82,9.12,2.22,15.13s0,17.84,0,17.84a36.81,36.81,0,0,1-16.75,5.1c-9.44.38-7.69-5.74-7.69-5.74S375.2,346.5,376.6,335.26Z" transform="translate(-26.47 -40.94)"/><path class="cls-9" d="M393.72,308.57S386,306,383.06,309.75s0,10.87,0,10.87l11.4.64s2.36-2.95,4.62-5.26C399.08,316,399.76,308.46,393.72,308.57Z" transform="translate(-26.47 -40.94)"/><path class="cls-17" d="M394,322.29l-.75,8.94a6,6,0,0,1-5.56,2.94c-4.06-.1-1.7-3.3-1.7-3.3l.79-5.73Z" transform="translate(-26.47 -40.94)"/><path class="cls-18" d="M386.19,329.54c2.62-.62,5.63-2.81,7.58-4.42l.24-2.83-7.22,2.85Z" transform="translate(-26.47 -40.94)"/><path class="cls-17" d="M384,314.24s-3.62,10.4,1,13c0,0,9.14.32,10.08-8.67s-4.25-8.43-4.25-8.43S386.4,309.2,384,314.24Z" transform="translate(-26.47 -40.94)"/><path class="cls-9" d="M391.1,312.38s-4,3.73-8.72,3.2c0,0,0-8.67,9.24-6.72,0,0,5.83-.78,4.36,9.8C396,318.66,392.31,320.2,391.1,312.38Z" transform="translate(-26.47 -40.94)"/><path class="cls-17" d="M394.14,319.57s.43-2.62,2.08-2.15.23,4.49-2.21,4.87Z" transform="translate(-26.47 -40.94)"/><path class="cls-19" d="M386,318.14c0,.2-.51,1.72-1.61,1.69,0,0-.24,1,1,1.11" transform="translate(-26.47 -40.94)"/><path class="cls-20" d="M384.62,322.29a7.11,7.11,0,0,0,3.08-.17s-.59,1.93-2.09,1.65S384.62,322.29,384.62,322.29Z" transform="translate(-26.47 -40.94)"/><path class="cls-21" d="M389.3,317.25c0,.41-.16.73-.35.73s-.35-.32-.35-.73.16-.72.35-.72S389.3,316.85,389.3,317.25Z" transform="translate(-26.47 -40.94)"/><path class="cls-21" d="M385.09,317.25c0,.41-.16.73-.35.73s-.35-.32-.35-.73.16-.72.35-.72S385.09,316.85,385.09,317.25Z" transform="translate(-26.47 -40.94)"/><path class="cls-19" d="M388.29,315.21s1.39-.76,1.86.5" transform="translate(-26.47 -40.94)"/><path class="cls-10" d="M378.75,332.48s-3.9,1.77-4.86,5.69-6,11.16-6,11.16-.95-2.76-8.69-13.27c0,0-3.63-.28-5.64,2.2,0,0,4.3,20.64,11.66,21.5s14.71-13.95,14.71-13.95Z" transform="translate(-26.47 -40.94)"/><path class="cls-11" d="M377.48,364.41s-1.17,12.87,1.27,18.86,2.69,58.48,2.69,58.48,3.19,2.55,8.92,1.15c0,0,3.19-22.55,1.28-31.6s4.58-27.26,1.65-46.44Z" transform="translate(-26.47 -40.94)"/><path class="cls-11" d="M386.06,367.88s1.74,10.6,4.56,14.75,12.31,59.5,12.31,59.5,3.49,2.3,9.22,0c0,0-.95-28.3-4.62-38s-.85-20.31-5.5-39.68Z" transform="translate(-26.47 -40.94)"/><path class="cls-2" d="M380.24,332.19a1.53,1.53,0,0,1,2.43-.3s-.19,7.11,0,7.39-2.08,2.29-2.76-.25S380.24,332.19,380.24,332.19Z" transform="translate(-26.47 -40.94)"/><path class="cls-2" d="M396.47,331.38a1.36,1.36,0,0,0-2.29-.09s.17,6.86,0,7.16,1.34,2.26,2-.28A21.33,21.33,0,0,0,396.47,331.38Z" transform="translate(-26.47 -40.94)"/><path class="cls-1" d="M380.2,338a116.52,116.52,0,0,1,15.63-.28,3.94,3.94,0,0,1,3.64,4.05c-.16,5.21-.14,14.37,1.91,15.07a38.7,38.7,0,0,1,4.28,15c.29,3.9.92,10.24.92,22.49,0,0-12,3.29-29.85-.63,0,0,.57-41.55,1.08-53.33C377.87,338.7,378.6,338.09,380.2,338Z" transform="translate(-26.47 -40.94)"/><path class="cls-17" d="M402.08,362.31a7.09,7.09,0,0,0-3.56.7c-1.21.83-1.79,3.5-2.87,5.16a3.08,3.08,0,0,0,4.16,0c1.52-1.43,2.54-.86,3.36-1.88a2.21,2.21,0,0,0-.08-2.73Z" transform="translate(-26.47 -40.94)"/><path class="cls-10" d="M399.81,331.44s4.76-.16,6.57,3.19,8.78,15.32,9.46,18c1,3.67-11.08,14.63-11.08,14.63s-3-.58-3.81-4.88c0,0,2-4.12,7.47-9.75,0,0-7.15-6.86-8.61-11S399.81,331.44,399.81,331.44Z" transform="translate(-26.47 -40.94)"/><path class="cls-22" d="M381.2,360.49h14.45s3,11.23-7.36,11.59S381.2,360.49,381.2,360.49Z" transform="translate(-26.47 -40.94)"/><rect class="cls-9" x="257.43" y="114.64" width="135.37" height="74.43" rx="7.87"/><text class="cls-23" transform="translate(283.36 138.61)">WE ARE</text><path class="cls-10" d="M262.3,111.64H381.92a7.88,7.88,0,0,1,7.88,7.88V178.2a7.87,7.87,0,0,1-7.87,7.87H262.3a7.87,7.87,0,0,1-7.87-7.87V119.51A7.87,7.87,0,0,1,262.3,111.64Z"/></g></svg>